PathFileType	3	(X/Y/Z)	D:\VICON_DB\Goncalves\Pilot01\09-03-2026\bw_sq_01.trc
DataRate	CameraRate	NumFrames	NumMarkers	Units	OrigDataRate	OrigDataStartFrame	OrigNumFrames
200.0	200.0	11	34	mm	200.0	480	767	
Frame#	Time	LASI			RASI			LPSI			RPSI			LTHI			LTHAP			LTHAD			LKNE			LKNM			LTIB			LTIAP			LTIAD			LANK			LMED			LHEE			LTOE			LFMH			LSMH			LVMH			RTHI			RTHAP			RTHAD			RKNE			RKNM			RTIB			RTIAP			RTIAD			RANK			RMED			RHEE			RTOE			RFMH			RSMH			RVMH			
		X1	Y1	Z1	X2	Y2	Z2	X3	Y3	Z3	X4	Y4	Z4	X5	Y5	Z5	X6	Y6	Z6	X7	Y7	Z7	X8	Y8	Z8	X9	Y9	Z9	X10	Y10	Z10	X11	Y11	Z11	X12	Y12	Z12	X13	Y13	Z13	X14	Y14	Z14	X15	Y15	Z15	X16	Y16	Z16	X17	Y17	Z17	X18	Y18	Z18	X19	Y19	Z19	X20	Y20	Z20	X21	Y21	Z21	X22	Y22	Z22	X23	Y23	Z23	X24	Y24	Z24	X25	Y25	Z25	X26	Y26	Z26	X27	Y27	Z27	X28	Y28	Z28	X29	Y29	Z29	X30	Y30	Z30	X31	Y31	Z31	X32	Y32	Z32	X33	Y33	Z33	X34	Y34	Z34	
480	2.395	324.04718	504.4325	-1028.8582	301.95859	512.6084	-1374.5273				484.35529	587.05365	-1243.2656	271.26071	503.67542	-1037.025	300.46552	504.86243	-1084.1757	231.55786	454.09839	-988.99017	89.968536	382.00681	-966.26587				152.69435	222.34186	-976.17462	51.050034	269.98099	-1019.1434	131.04385	187.37012	-1014.5221	274.59161	65.751953	-1034.5984				316.1337	72.464951	-1089.3827	197.15091	69.717087	-1052.9412	143.77577	44.907578	-1075.2319				164.49333	26.805902	-995.66266	208.61845	449.50952	-1402.2095	303.02365	513.18506	-1351.3716	227.20065	507.42078	-1348.699	87.798843	384.38895	-1387.3379				118.79537	227.09816	-1383.8268	53.21524	256.3793	-1330.6571	110.62952	193.27504	-1326.6195	284.58606	61.908314	-1351.27				321.72949	65.925652	-1306.6027	198.13423	66.929291	-1331.3528	150.13556	48.894672	-1308.7922				166.33083	22.461042	-1382.0806
481	2.4	324.12057	504.82397	-1028.826	301.94537	513.01788	-1374.4764				484.492	587.60248	-1243.2104	271.33627	503.96658	-1037.0371	300.5957	505.2955	-1084.1489	231.62601	454.33783	-989.05231	90.106705	382.13696	-966.48303				152.80975	222.45985	-976.30939	51.190292	270.10855	-1019.2921	131.1328	187.46169	-1014.6123	274.60703	65.750893	-1034.6173				316.14734	72.430031	-1089.4066	197.16835	69.715752	-1052.9464	143.7827	44.907932	-1075.2328				164.49342	26.807842	-995.66449	208.6674	449.78543	-1402.0245	303.06653	513.68079	-1351.3583	227.21828	507.73584	-1348.5555	87.930794	384.53961	-1387.0432				118.89216	227.22629	-1383.6492	53.341221	256.50598	-1330.452	110.71437	193.36963	-1326.4629	284.59305	61.913773	-1351.2234				321.74286	65.905441	-1306.5664	198.12433	66.94397	-1331.3254	150.12956	48.896767	-1308.7681				166.33539	22.495001	-1382.0504
482	2.405	324.19415	505.26996	-1028.7913	301.9404	513.47729	-1374.4288				484.63159	588.2207	-1243.1476	271.40897	504.30374	-1037.0553	300.72849	505.78195	-1084.124	231.69423	454.61609	-989.12225	90.254555	382.28397	-966.72089				152.93431	222.59047	-976.45612	51.34407	270.25052	-1019.4567	131.22943	187.56325	-1014.7117	274.62238	65.751389	-1034.6356				316.16406	72.392944	-1089.4297	197.18791	69.715164	-1052.9519	143.79117	44.908653	-1075.2346				164.49339	26.81144	-995.66718	208.73195	450.09448	-1401.8301	303.12396	514.22626	-1351.3379	227.24333	508.08917	-1348.4087	88.086205	384.71198	-1386.74				119.00527	227.36766	-1383.4647	53.48568	256.64893	-1330.2418	110.81211	193.47577	-1326.3026	284.60245	61.919983	-1351.177				321.7594	65.883316	-1306.5308	198.11626	66.959679	-1331.2981	150.12398	48.899162	-1308.7444				166.33984	22.534067	-1382.0198
483	2.41	324.26813	505.77115	-1028.7528	301.94205	513.98914	-1374.385				484.77228	588.91064	-1243.0778	271.47897	504.68903	-1037.0759	300.86401	506.32309	-1084.0992	231.76378	454.93372	-989.19781	90.413467	382.44772	-966.97614				153.06888	222.73364	-976.61249	51.511784	270.40726	-1019.6342	131.33417	187.67496	-1014.8182	274.63806	65.75296	-1034.653				316.18384	72.353806	-1089.4514	197.20956	69.715431	-1052.9568	143.80104	44.909904	-1075.2373				164.4933	26.816385	-995.67041	208.81245	450.43759	-1401.626	303.19659	514.82184	-1351.3079	227.2753	508.48187	-1348.2582	88.265648	384.90628	-1386.4285				119.1348	227.52184	-1383.2738	53.648685	256.80826	-1330.027	110.9229	193.59355	-1326.1395	284.6142	61.927246	-1351.1318				321.77917	65.859322	-1306.4962	198.1106	66.976074	-1331.2709	150.11911	48.901657	-1308.7216				166.34402	22.578028	-1381.989
484	2.415	324.34256	506.32809	-1028.7095	301.94925	514.55511	-1374.3431				484.91235	589.67426	-1243.0006	271.54645	505.12396	-1037.0963	301.00208	506.91974	-1084.0732	231.83582	455.29083	-989.27643	90.58477	382.62827	-967.24542				153.21434	222.8891	-976.77655	51.693764	270.57883	-1019.8213	131.44749	187.79701	-1014.9293	274.65445	65.755013	-1034.6692				316.20657	72.31266	-1089.4712	197.23326	69.716553	-1052.9606	143.81218	44.911793	-1075.24				164.49315	26.822268	-995.67401	208.90939	450.81567	-1401.4121	303.28464	515.4679	-1351.266	227.31375	508.91507	-1348.1034	88.469795	385.12234	-1386.11				119.28089	227.68825	-1383.0781	53.830227	256.98373	-1329.8092	111.0468	193.72308	-1325.9742	284.62839	61.935738	-1351.0884				321.80212	65.833527	-1306.4633	198.10779	66.992844	-1331.2433	150.11528	48.904064	-1308.699				166.34769	22.626762	-1381.9586
485	2.42	324.41742	506.94086	-1028.6606	301.96182	515.17609	-1374.3015				485.05017	590.51294	-1242.9171	271.61151	505.60968	-1037.114	301.14236	507.57248	-1084.0443	231.91148	455.68774	-989.3559	90.769684	382.82538	-967.52539				153.3714	223.05635	-976.94574	51.890266	270.7652	-1020.0149	131.56987	187.92947	-1015.0427	274.67203	65.756973	-1034.6838				316.23239	72.269585	-1089.4884	197.25894	69.718452	-1052.9619	143.82458	44.914383	-1075.2427				164.49287	26.828583	-995.67749	209.0231	451.22961	-1401.1891	303.38797	516.16486	-1351.2111	227.35841	509.38977	-1347.9442	88.699226	385.35992	-1385.7847				119.44367	227.86641	-1382.8778	54.030338	257.17526	-1329.5891	111.18385	193.86443	-1325.807	284.64493	61.945515	-1351.0475				321.82846	65.805984	-1306.4315	198.10818	67.009682	-1331.2153	150.11299	48.906162	-1308.6768				166.35048	22.680256	-1381.9287
486	2.425	324.49243	507.60907	-1028.6062	301.97986	515.85229	-1374.2568				485.18393	591.42749	-1242.8276	271.67416	506.14703	-1037.1271	301.28439	508.28146	-1084.0116	231.99181	456.12457	-989.43445	90.969345	383.039	-967.81262				153.5407	223.23486	-977.11804	52.101486	270.96603	-1020.2119	131.70174	188.07228	-1015.1562	274.69122	65.758377	-1034.6963				316.26123	72.224579	-1089.5017	197.28661	69.721024	-1052.9607	143.83813	44.917713	-1075.2445				164.49254	26.834822	-995.6806	209.15384	451.68066	-1400.9573	303.5061	516.91327	-1351.1428	227.40897	509.90683	-1347.7808	88.954277	385.61896	-1385.4536				119.62334	228.05583	-1382.6737	54.249115	257.38266	-1329.368	111.33403	194.01755	-1325.6389	284.66385	61.956581	-1351.0098				321.85822	65.776787	-1306.4019	198.112	67.026299	-1331.1874	150.11269	48.907787	-1308.6541				166.35211	22.738518	-1381.8997
487	2.43	324.56726	508.33255	-1028.5461	302.00403	516.58344	-1374.2059				485.31219	592.41846	-1242.7332	271.73428	506.73627	-1037.1331	301.42749	509.04691	-1083.9736	232.07765	456.60144	-989.51013	91.184746	383.26892	-968.10406				153.72269	223.424	-977.29095	52.327576	271.18106	-1020.4092	131.84343	188.22527	-1015.2678	274.71237	65.758888	-1034.7063				316.2933	72.177719	-1089.5107	197.31627	69.724167	-1052.9556	143.85287	44.921795	-1075.2454				164.49203	26.840487	-995.68317	209.30182	452.16995	-1400.7181	303.63815	517.71387	-1351.0615	227.46512	510.4671	-1347.613	89.235069	385.89963	-1385.1178				119.81999	228.25613	-1382.4663	54.486675	257.60577	-1329.1464	111.49738	194.18227	-1325.4705	284.68515	61.968884	-1350.9751				321.89145	65.746048	-1306.3739	198.11946	67.042412	-1331.1592	150.11491	48.908863	-1308.6312				166.35222	22.801544	-1381.8718
488	2.435	324.64127	509.11099	-1028.4807	302.035	517.3689	-1374.1462				485.43393	593.48615	-1242.6339	271.79172	507.37762	-1037.1312	301.57068	509.86862	-1083.9302	232.16969	457.11841	-989.5816	91.416702	383.51492	-968.39685				153.9176	223.62308	-977.46246	52.568607	271.40985	-1020.604	131.99516	188.38818	-1015.3756	274.73578	65.758308	-1034.7135				316.32852	72.129074	-1089.5149	197.34801	69.727798	-1052.9464	143.86877	44.92664	-1075.245				164.49141	26.845179	-995.685	209.46696	452.69861	-1400.4729	303.78296	518.56708	-1350.9679	227.52667	511.07114	-1347.4413	89.541611	386.20197	-1384.7782				120.03349	228.46712	-1382.2568	54.743092	257.84421	-1328.9254	111.67387	194.35838	-1325.3024	284.7088	61.982334	-1350.9442				321.92819	65.713837	-1306.3484	198.13086	67.05777	-1331.1311	150.12006	48.909462	-1308.6073				166.35052	22.869341	-1381.8451
489	2.44	324.71381	509.94421	-1028.4105	302.07318	518.20813	-1374.0759				485.54846	594.63104	-1242.5309	271.84613	508.07108	-1037.1201	301.71298	510.7467	-1083.8801	232.26831	457.67575	-989.64764	91.665863	383.77686	-968.68842				154.12531	223.83122	-977.63062	52.82444	271.65176	-1020.7943	132.15692	188.56064	-1015.4781	274.76166	65.756638	-1034.7172				316.36703	72.078789	-1089.5129	197.38188	69.731873	-1052.9326	143.88588	44.93227	-1075.2432				164.49069	26.84864	-995.68579	209.64883	453.26764	-1400.2227	303.93921	519.47382	-1350.8629	227.59331	511.71936	-1347.2664	89.87384	386.52588	-1384.4357				120.2636	228.68875	-1382.0471	55.018291	258.09769	-1328.7057	111.86356	194.54558	-1325.1353	284.7348	61.996792	-1350.9171				321.96848	65.68029	-1306.3256	198.14644	67.072136	-1331.103	150.12848	48.909809	-1308.5828				166.34689	22.941898	-1381.8197
490	2.445	324.784	510.832	-1028.3362	302.1185	519.10083	-1373.9949				485.65549	595.85333	-1242.4244	271.89688	508.81638	-1037.0992	301.85327	511.68121	-1083.824	232.37364	458.27353	-989.70764	91.93264	384.05453	-968.97693				154.34541	224.04738	-977.79382	53.094769	271.90604	-1020.978	132.32863	188.74213	-1015.5743	274.79004	65.754013	-1034.7173				316.40875	72.027046	-1089.5052	197.41794	69.736359	-1052.9142	143.90427	44.938702	-1075.2394				164.4899	26.850763	-995.68573	209.84676	453.87756	-1399.9688	304.10544	520.43439	-1350.748	227.6647	512.41168	-1347.0886	90.231598	386.87088	-1384.0914				120.50992	228.92108	-1381.8387	55.312046	258.36572	-1328.4879	112.06635	194.74356	-1324.9696	284.76324	62.012085	-1350.8937				322.01218	65.645477	-1306.3053	198.16649	67.085373	-1331.0747	150.14044	48.910225	-1308.5575				166.34122	23.019152	-1381.7955
